<mxfile host="app.diagrams.net" modified="2024-04-29T08:59:17.400Z" agent="Mozilla/5.0 (Windows NT 10.0; Win64; x64) AppleWebKit/537.36 (KHTML, like Gecko) Chrome/123.0.0.0 Safari/537.36" etag="DBLzfJj8sJqfb2gDfDhT" version="24.2.2" type="github">
  <diagram name="第 1 页" id="rHj-dIYMqYzPayB8cscu">
    <mxGraphModel dx="2474" dy="839" grid="1" gridSize="10" guides="1" tooltips="1" connect="1" arrows="1" fold="1" page="1" pageScale="1" pageWidth="827" pageHeight="1169" math="0" shadow="0">
      <root>
        <mxCell id="0" />
        <mxCell id="1" parent="0" />
        <mxCell id="abwORtX6xPweR-GpnYd3-14" value="" style="rounded=0;whiteSpace=wrap;html=1;fontSize=14;" parent="1" vertex="1">
          <mxGeometry x="-190" y="270" width="50" height="50" as="geometry" />
        </mxCell>
        <mxCell id="abwORtX6xPweR-GpnYd3-15" value="240" style="text;html=1;align=center;verticalAlign=middle;resizable=0;points=[];autosize=1;strokeColor=none;fillColor=none;fontSize=14;" parent="1" vertex="1">
          <mxGeometry x="-65" y="470" width="50" height="30" as="geometry" />
        </mxCell>
        <mxCell id="abwORtX6xPweR-GpnYd3-18" value="120" style="text;html=1;align=center;verticalAlign=middle;resizable=0;points=[];autosize=1;strokeColor=none;fillColor=none;fontSize=14;" parent="1" vertex="1">
          <mxGeometry x="-165" y="470" width="50" height="30" as="geometry" />
        </mxCell>
        <mxCell id="abwORtX6xPweR-GpnYd3-20" value="" style="rounded=0;whiteSpace=wrap;html=1;fontSize=14;" parent="1" vertex="1">
          <mxGeometry x="-240" y="370" width="100" height="100" as="geometry" />
        </mxCell>
        <mxCell id="abwORtX6xPweR-GpnYd3-21" value="" style="rounded=0;whiteSpace=wrap;html=1;fontSize=14;" parent="1" vertex="1">
          <mxGeometry x="-140" y="270" width="100" height="200" as="geometry" />
        </mxCell>
        <mxCell id="abwORtX6xPweR-GpnYd3-22" value="" style="rounded=0;whiteSpace=wrap;html=1;fontSize=14;" parent="1" vertex="1">
          <mxGeometry x="-190" y="320" width="50" height="50" as="geometry" />
        </mxCell>
        <mxCell id="abwORtX6xPweR-GpnYd3-23" value="" style="rounded=0;whiteSpace=wrap;html=1;fontSize=14;" parent="1" vertex="1">
          <mxGeometry x="-240" y="270" width="50" height="100" as="geometry" />
        </mxCell>
        <mxCell id="abwORtX6xPweR-GpnYd3-24" value="" style="ellipse;whiteSpace=wrap;html=1;aspect=fixed;fillColor=#99FF99;fontSize=14;" parent="1" vertex="1">
          <mxGeometry x="-170" y="295" width="10" height="10" as="geometry" />
        </mxCell>
        <mxCell id="abwORtX6xPweR-GpnYd3-33" value="" style="ellipse;whiteSpace=wrap;html=1;aspect=fixed;fillColor=#99FF99;fontSize=14;" parent="1" vertex="1">
          <mxGeometry x="-220" y="320" width="10" height="10" as="geometry" />
        </mxCell>
        <mxCell id="abwORtX6xPweR-GpnYd3-36" value="" style="ellipse;whiteSpace=wrap;html=1;aspect=fixed;fillColor=#99FF99;fontSize=14;" parent="1" vertex="1">
          <mxGeometry x="-170" y="350" width="10" height="10" as="geometry" />
        </mxCell>
        <mxCell id="abwORtX6xPweR-GpnYd3-38" value="" style="ellipse;whiteSpace=wrap;html=1;aspect=fixed;fillColor=#99FF99;fontSize=14;" parent="1" vertex="1">
          <mxGeometry x="-180" y="430" width="10" height="10" as="geometry" />
        </mxCell>
        <mxCell id="abwORtX6xPweR-GpnYd3-39" value="" style="ellipse;whiteSpace=wrap;html=1;aspect=fixed;fillColor=#FF0000;fontSize=14;" parent="1" vertex="1">
          <mxGeometry x="-90" y="365" width="10" height="10" as="geometry" />
        </mxCell>
        <mxCell id="abwORtX6xPweR-GpnYd3-41" value="60" style="text;html=1;align=center;verticalAlign=middle;resizable=0;points=[];autosize=1;strokeColor=none;fillColor=none;fontSize=14;" parent="1" vertex="1">
          <mxGeometry x="-210" y="470" width="40" height="30" as="geometry" />
        </mxCell>
        <mxCell id="abwORtX6xPweR-GpnYd3-42" value="50" style="text;html=1;align=center;verticalAlign=middle;resizable=0;points=[];autosize=1;strokeColor=none;fillColor=none;fontSize=14;" parent="1" vertex="1">
          <mxGeometry x="-280" y="355" width="40" height="30" as="geometry" />
        </mxCell>
        <mxCell id="abwORtX6xPweR-GpnYd3-43" value="75" style="text;html=1;align=center;verticalAlign=middle;resizable=0;points=[];autosize=1;strokeColor=none;fillColor=none;fontSize=14;" parent="1" vertex="1">
          <mxGeometry x="-280" y="305" width="40" height="30" as="geometry" />
        </mxCell>
        <mxCell id="abwORtX6xPweR-GpnYd3-44" value="100" style="text;html=1;align=center;verticalAlign=middle;resizable=0;points=[];autosize=1;strokeColor=none;fillColor=none;fontSize=14;" parent="1" vertex="1">
          <mxGeometry x="-285" y="260" width="50" height="30" as="geometry" />
        </mxCell>
        <mxCell id="abwORtX6xPweR-GpnYd3-65" style="rounded=0;orthogonalLoop=1;jettySize=auto;html=1;entryX=1;entryY=0;entryDx=0;entryDy=0;fontSize=14;" parent="1" source="abwORtX6xPweR-GpnYd3-45" target="abwORtX6xPweR-GpnYd3-57" edge="1">
          <mxGeometry relative="1" as="geometry" />
        </mxCell>
        <mxCell id="abwORtX6xPweR-GpnYd3-66" style="rounded=0;orthogonalLoop=1;jettySize=auto;html=1;entryX=0.25;entryY=0;entryDx=0;entryDy=0;fontSize=14;" parent="1" source="abwORtX6xPweR-GpnYd3-45" target="abwORtX6xPweR-GpnYd3-58" edge="1">
          <mxGeometry relative="1" as="geometry" />
        </mxCell>
        <mxCell id="abwORtX6xPweR-GpnYd3-45" value="x&amp;gt;120" style="ellipse;whiteSpace=wrap;html=1;aspect=fixed;fontSize=14;" parent="1" vertex="1">
          <mxGeometry x="200" y="220" width="40" height="40" as="geometry" />
        </mxCell>
        <mxCell id="abwORtX6xPweR-GpnYd3-67" style="rounded=0;orthogonalLoop=1;jettySize=auto;html=1;entryX=0.75;entryY=0;entryDx=0;entryDy=0;fontSize=14;" parent="1" source="abwORtX6xPweR-GpnYd3-57" target="abwORtX6xPweR-GpnYd3-61" edge="1">
          <mxGeometry relative="1" as="geometry" />
        </mxCell>
        <mxCell id="abwORtX6xPweR-GpnYd3-68" style="rounded=0;orthogonalLoop=1;jettySize=auto;html=1;entryX=0;entryY=0;entryDx=0;entryDy=0;fontSize=14;" parent="1" source="abwORtX6xPweR-GpnYd3-57" target="abwORtX6xPweR-GpnYd3-59" edge="1">
          <mxGeometry relative="1" as="geometry" />
        </mxCell>
        <mxCell id="abwORtX6xPweR-GpnYd3-57" value="y&amp;gt;50" style="ellipse;whiteSpace=wrap;html=1;aspect=fixed;fontSize=14;" parent="1" vertex="1">
          <mxGeometry x="120" y="300" width="40" height="40" as="geometry" />
        </mxCell>
        <mxCell id="abwORtX6xPweR-GpnYd3-58" value="" style="whiteSpace=wrap;html=1;aspect=fixed;fillColor=#FF0000;fontSize=14;" parent="1" vertex="1">
          <mxGeometry x="280" y="305" width="40" height="40" as="geometry" />
        </mxCell>
        <mxCell id="abwORtX6xPweR-GpnYd3-69" style="rounded=0;orthogonalLoop=1;jettySize=auto;html=1;entryX=0.75;entryY=0;entryDx=0;entryDy=0;fontSize=14;" parent="1" source="abwORtX6xPweR-GpnYd3-59" target="abwORtX6xPweR-GpnYd3-62" edge="1">
          <mxGeometry relative="1" as="geometry" />
        </mxCell>
        <mxCell id="abwORtX6xPweR-GpnYd3-70" style="rounded=0;orthogonalLoop=1;jettySize=auto;html=1;entryX=0;entryY=0;entryDx=0;entryDy=0;fontSize=14;" parent="1" source="abwORtX6xPweR-GpnYd3-59" target="abwORtX6xPweR-GpnYd3-60" edge="1">
          <mxGeometry relative="1" as="geometry" />
        </mxCell>
        <mxCell id="abwORtX6xPweR-GpnYd3-59" value="x&amp;gt;60" style="ellipse;whiteSpace=wrap;html=1;aspect=fixed;fontSize=14;" parent="1" vertex="1">
          <mxGeometry x="180" y="375" width="40" height="40" as="geometry" />
        </mxCell>
        <mxCell id="abwORtX6xPweR-GpnYd3-71" style="rounded=0;orthogonalLoop=1;jettySize=auto;html=1;entryX=0.75;entryY=0;entryDx=0;entryDy=0;fontSize=14;" parent="1" source="abwORtX6xPweR-GpnYd3-60" target="abwORtX6xPweR-GpnYd3-63" edge="1">
          <mxGeometry relative="1" as="geometry" />
        </mxCell>
        <mxCell id="abwORtX6xPweR-GpnYd3-72" style="rounded=0;orthogonalLoop=1;jettySize=auto;html=1;entryX=0.25;entryY=0;entryDx=0;entryDy=0;fontSize=14;" parent="1" source="abwORtX6xPweR-GpnYd3-60" target="abwORtX6xPweR-GpnYd3-64" edge="1">
          <mxGeometry relative="1" as="geometry" />
        </mxCell>
        <mxCell id="abwORtX6xPweR-GpnYd3-60" value="y&amp;gt;75" style="ellipse;whiteSpace=wrap;html=1;aspect=fixed;fontSize=14;" parent="1" vertex="1">
          <mxGeometry x="240" y="450" width="40" height="40" as="geometry" />
        </mxCell>
        <mxCell id="abwORtX6xPweR-GpnYd3-61" value="" style="whiteSpace=wrap;html=1;aspect=fixed;fillColor=#99FF99;fontSize=14;" parent="1" vertex="1">
          <mxGeometry x="60" y="385" width="40" height="40" as="geometry" />
        </mxCell>
        <mxCell id="abwORtX6xPweR-GpnYd3-62" value="" style="whiteSpace=wrap;html=1;aspect=fixed;fillColor=#99FF99;fontSize=14;" parent="1" vertex="1">
          <mxGeometry x="130" y="460" width="40" height="40" as="geometry" />
        </mxCell>
        <mxCell id="abwORtX6xPweR-GpnYd3-63" value="" style="whiteSpace=wrap;html=1;aspect=fixed;fillColor=#99FF99;fontSize=14;" parent="1" vertex="1">
          <mxGeometry x="180" y="540" width="40" height="40" as="geometry" />
        </mxCell>
        <mxCell id="abwORtX6xPweR-GpnYd3-64" value="" style="whiteSpace=wrap;html=1;aspect=fixed;fillColor=#99FF99;fontSize=14;" parent="1" vertex="1">
          <mxGeometry x="300" y="540" width="40" height="40" as="geometry" />
        </mxCell>
        <mxCell id="abwORtX6xPweR-GpnYd3-73" value="N" style="text;html=1;align=center;verticalAlign=middle;resizable=0;points=[];autosize=1;strokeColor=none;fillColor=none;fontSize=14;" parent="1" vertex="1">
          <mxGeometry x="150" y="250" width="30" height="30" as="geometry" />
        </mxCell>
        <mxCell id="abwORtX6xPweR-GpnYd3-74" value="N" style="text;html=1;align=center;verticalAlign=middle;resizable=0;points=[];autosize=1;strokeColor=none;fillColor=none;fontSize=14;" parent="1" vertex="1">
          <mxGeometry x="90" y="330" width="30" height="30" as="geometry" />
        </mxCell>
        <mxCell id="abwORtX6xPweR-GpnYd3-75" value="N" style="text;html=1;align=center;verticalAlign=middle;resizable=0;points=[];autosize=1;strokeColor=none;fillColor=none;fontSize=14;" parent="1" vertex="1">
          <mxGeometry x="150" y="405" width="30" height="30" as="geometry" />
        </mxCell>
        <mxCell id="abwORtX6xPweR-GpnYd3-76" value="N" style="text;html=1;align=center;verticalAlign=middle;resizable=0;points=[];autosize=1;strokeColor=none;fillColor=none;fontSize=14;" parent="1" vertex="1">
          <mxGeometry x="205" y="490" width="30" height="30" as="geometry" />
        </mxCell>
        <mxCell id="abwORtX6xPweR-GpnYd3-77" value="Y" style="text;html=1;align=center;verticalAlign=middle;resizable=0;points=[];autosize=1;strokeColor=none;fillColor=none;fontSize=14;" parent="1" vertex="1">
          <mxGeometry x="255" y="248" width="30" height="30" as="geometry" />
        </mxCell>
        <mxCell id="abwORtX6xPweR-GpnYd3-78" value="Y" style="text;html=1;align=center;verticalAlign=middle;resizable=0;points=[];autosize=1;strokeColor=none;fillColor=none;fontSize=14;" parent="1" vertex="1">
          <mxGeometry x="170" y="330" width="30" height="30" as="geometry" />
        </mxCell>
        <mxCell id="abwORtX6xPweR-GpnYd3-79" value="Y" style="text;html=1;align=center;verticalAlign=middle;resizable=0;points=[];autosize=1;strokeColor=none;fillColor=none;fontSize=14;" parent="1" vertex="1">
          <mxGeometry x="235" y="405" width="30" height="30" as="geometry" />
        </mxCell>
        <mxCell id="abwORtX6xPweR-GpnYd3-80" value="Y" style="text;html=1;align=center;verticalAlign=middle;resizable=0;points=[];autosize=1;strokeColor=none;fillColor=none;fontSize=14;" parent="1" vertex="1">
          <mxGeometry x="290" y="490" width="30" height="30" as="geometry" />
        </mxCell>
        <mxCell id="abwORtX6xPweR-GpnYd3-81" value="&lt;b style=&quot;font-size: 14px;&quot;&gt;异常得分&lt;/b&gt;" style="text;html=1;align=center;verticalAlign=middle;resizable=0;points=[];autosize=1;strokeColor=none;fillColor=none;fontSize=14;" parent="1" vertex="1">
          <mxGeometry x="-206.25" y="625" width="80" height="30" as="geometry" />
        </mxCell>
        <mxCell id="abwORtX6xPweR-GpnYd3-82" value="" style="rounded=0;whiteSpace=wrap;html=1;fillColor=#FF0000;fontSize=14;" parent="1" vertex="1">
          <mxGeometry x="-173.75" y="700" width="15" height="85" as="geometry" />
        </mxCell>
        <mxCell id="abwORtX6xPweR-GpnYd3-84" value="" style="rounded=0;whiteSpace=wrap;html=1;fillColor=#99FF99;fontSize=14;" parent="1" vertex="1">
          <mxGeometry x="-173.75" y="785" width="15" height="85" as="geometry" />
        </mxCell>
        <mxCell id="abwORtX6xPweR-GpnYd3-85" value="&lt;b style=&quot;font-size: 14px;&quot;&gt;&lt;font style=&quot;font-size: 14px;&quot; color=&quot;#ff0000&quot;&gt;异常&lt;/font&gt;&lt;/b&gt;" style="text;html=1;align=center;verticalAlign=middle;resizable=0;points=[];autosize=1;strokeColor=none;fillColor=none;fontSize=14;" parent="1" vertex="1">
          <mxGeometry x="-238.75" y="710" width="50" height="30" as="geometry" />
        </mxCell>
        <mxCell id="abwORtX6xPweR-GpnYd3-86" value="0.5" style="text;html=1;align=center;verticalAlign=middle;resizable=0;points=[];autosize=1;strokeColor=none;fillColor=none;fontSize=14;" parent="1" vertex="1">
          <mxGeometry x="-233.75" y="770" width="40" height="30" as="geometry" />
        </mxCell>
        <mxCell id="abwORtX6xPweR-GpnYd3-87" value="&lt;font style=&quot;font-size: 14px;&quot; color=&quot;#99ff99&quot;&gt;&lt;b style=&quot;font-size: 14px;&quot;&gt;正常&lt;/b&gt;&lt;/font&gt;" style="text;html=1;align=center;verticalAlign=middle;resizable=0;points=[];autosize=1;strokeColor=none;fillColor=none;fontSize=14;" parent="1" vertex="1">
          <mxGeometry x="-238.75" y="825" width="50" height="30" as="geometry" />
        </mxCell>
        <mxCell id="abwORtX6xPweR-GpnYd3-88" value="&lt;b style=&quot;font-size: 14px;&quot;&gt;iTree 1&lt;/b&gt;" style="text;html=1;align=center;verticalAlign=middle;resizable=0;points=[];autosize=1;strokeColor=none;fillColor=none;fontSize=14;" parent="1" vertex="1">
          <mxGeometry x="-65" y="620" width="70" height="30" as="geometry" />
        </mxCell>
        <mxCell id="abwORtX6xPweR-GpnYd3-100" style="rounded=0;orthogonalLoop=1;jettySize=auto;html=1;entryX=1;entryY=0;entryDx=0;entryDy=0;fontSize=14;" parent="1" source="abwORtX6xPweR-GpnYd3-89" target="abwORtX6xPweR-GpnYd3-90" edge="1">
          <mxGeometry relative="1" as="geometry" />
        </mxCell>
        <mxCell id="abwORtX6xPweR-GpnYd3-101" style="rounded=0;orthogonalLoop=1;jettySize=auto;html=1;entryX=0;entryY=0;entryDx=0;entryDy=0;fontSize=14;" parent="1" source="abwORtX6xPweR-GpnYd3-89" target="abwORtX6xPweR-GpnYd3-91" edge="1">
          <mxGeometry relative="1" as="geometry" />
        </mxCell>
        <mxCell id="abwORtX6xPweR-GpnYd3-89" value="" style="ellipse;whiteSpace=wrap;html=1;aspect=fixed;fontSize=14;" parent="1" vertex="1">
          <mxGeometry x="-40" y="660" width="20" height="20" as="geometry" />
        </mxCell>
        <mxCell id="abwORtX6xPweR-GpnYd3-90" value="" style="ellipse;whiteSpace=wrap;html=1;aspect=fixed;fillColor=#FF0000;fontSize=14;" parent="1" vertex="1">
          <mxGeometry x="-100" y="710" width="20" height="20" as="geometry" />
        </mxCell>
        <mxCell id="abwORtX6xPweR-GpnYd3-103" style="rounded=0;orthogonalLoop=1;jettySize=auto;html=1;entryX=0;entryY=0;entryDx=0;entryDy=0;fontSize=14;" parent="1" source="abwORtX6xPweR-GpnYd3-91" target="abwORtX6xPweR-GpnYd3-93" edge="1">
          <mxGeometry relative="1" as="geometry" />
        </mxCell>
        <mxCell id="abwORtX6xPweR-GpnYd3-91" value="" style="ellipse;whiteSpace=wrap;html=1;aspect=fixed;fontSize=14;" parent="1" vertex="1">
          <mxGeometry x="20" y="710" width="20" height="20" as="geometry" />
        </mxCell>
        <mxCell id="abwORtX6xPweR-GpnYd3-104" style="rounded=0;orthogonalLoop=1;jettySize=auto;html=1;entryX=1;entryY=0;entryDx=0;entryDy=0;fontSize=14;" parent="1" source="abwORtX6xPweR-GpnYd3-92" target="abwORtX6xPweR-GpnYd3-94" edge="1">
          <mxGeometry relative="1" as="geometry" />
        </mxCell>
        <mxCell id="abwORtX6xPweR-GpnYd3-105" style="rounded=0;orthogonalLoop=1;jettySize=auto;html=1;entryX=0;entryY=0;entryDx=0;entryDy=0;fontSize=14;" parent="1" source="abwORtX6xPweR-GpnYd3-92" target="abwORtX6xPweR-GpnYd3-95" edge="1">
          <mxGeometry relative="1" as="geometry" />
        </mxCell>
        <mxCell id="abwORtX6xPweR-GpnYd3-92" value="" style="ellipse;whiteSpace=wrap;html=1;aspect=fixed;fontSize=14;" parent="1" vertex="1">
          <mxGeometry x="-20" y="765" width="20" height="20" as="geometry" />
        </mxCell>
        <mxCell id="abwORtX6xPweR-GpnYd3-93" value="" style="ellipse;whiteSpace=wrap;html=1;aspect=fixed;fillColor=#99FF99;fontSize=14;" parent="1" vertex="1">
          <mxGeometry x="60" y="765" width="20" height="20" as="geometry" />
        </mxCell>
        <mxCell id="abwORtX6xPweR-GpnYd3-94" value="" style="ellipse;whiteSpace=wrap;html=1;aspect=fixed;fontSize=14;" parent="1" vertex="1">
          <mxGeometry x="-60" y="817.5" width="20" height="20" as="geometry" />
        </mxCell>
        <mxCell id="abwORtX6xPweR-GpnYd3-106" style="rounded=0;orthogonalLoop=1;jettySize=auto;html=1;entryX=1;entryY=0;entryDx=0;entryDy=0;fontSize=14;" parent="1" source="abwORtX6xPweR-GpnYd3-95" target="abwORtX6xPweR-GpnYd3-96" edge="1">
          <mxGeometry relative="1" as="geometry" />
        </mxCell>
        <mxCell id="abwORtX6xPweR-GpnYd3-107" style="rounded=0;orthogonalLoop=1;jettySize=auto;html=1;entryX=0;entryY=0;entryDx=0;entryDy=0;fontSize=14;" parent="1" source="abwORtX6xPweR-GpnYd3-95" target="abwORtX6xPweR-GpnYd3-97" edge="1">
          <mxGeometry relative="1" as="geometry" />
        </mxCell>
        <mxCell id="abwORtX6xPweR-GpnYd3-95" value="" style="ellipse;whiteSpace=wrap;html=1;aspect=fixed;fontSize=14;" parent="1" vertex="1">
          <mxGeometry x="20" y="817.5" width="20" height="20" as="geometry" />
        </mxCell>
        <mxCell id="abwORtX6xPweR-GpnYd3-108" style="rounded=0;orthogonalLoop=1;jettySize=auto;html=1;entryX=1;entryY=0;entryDx=0;entryDy=0;fontSize=14;" parent="1" source="abwORtX6xPweR-GpnYd3-96" target="abwORtX6xPweR-GpnYd3-98" edge="1">
          <mxGeometry relative="1" as="geometry" />
        </mxCell>
        <mxCell id="abwORtX6xPweR-GpnYd3-109" style="rounded=0;orthogonalLoop=1;jettySize=auto;html=1;entryX=0;entryY=0;entryDx=0;entryDy=0;fontSize=14;" parent="1" source="abwORtX6xPweR-GpnYd3-96" target="abwORtX6xPweR-GpnYd3-99" edge="1">
          <mxGeometry relative="1" as="geometry" />
        </mxCell>
        <mxCell id="abwORtX6xPweR-GpnYd3-96" value="" style="ellipse;whiteSpace=wrap;html=1;aspect=fixed;fontSize=14;" parent="1" vertex="1">
          <mxGeometry x="-20" y="870" width="20" height="20" as="geometry" />
        </mxCell>
        <mxCell id="abwORtX6xPweR-GpnYd3-97" value="" style="ellipse;whiteSpace=wrap;html=1;aspect=fixed;fontSize=14;" parent="1" vertex="1">
          <mxGeometry x="60" y="870" width="20" height="20" as="geometry" />
        </mxCell>
        <mxCell id="abwORtX6xPweR-GpnYd3-98" value="" style="ellipse;whiteSpace=wrap;html=1;aspect=fixed;fontSize=14;" parent="1" vertex="1">
          <mxGeometry x="-60" y="930" width="20" height="20" as="geometry" />
        </mxCell>
        <mxCell id="abwORtX6xPweR-GpnYd3-99" value="" style="ellipse;whiteSpace=wrap;html=1;aspect=fixed;fillColor=#99FF99;fontSize=14;" parent="1" vertex="1">
          <mxGeometry x="20" y="930" width="20" height="20" as="geometry" />
        </mxCell>
        <mxCell id="abwORtX6xPweR-GpnYd3-102" style="rounded=0;orthogonalLoop=1;jettySize=auto;html=1;entryX=0.905;entryY=0.318;entryDx=0;entryDy=0;entryPerimeter=0;fontSize=14;" parent="1" source="abwORtX6xPweR-GpnYd3-91" target="abwORtX6xPweR-GpnYd3-92" edge="1">
          <mxGeometry relative="1" as="geometry" />
        </mxCell>
        <mxCell id="abwORtX6xPweR-GpnYd3-110" value="&lt;b style=&quot;font-size: 14px;&quot;&gt;iTree 2&lt;/b&gt;" style="text;html=1;align=center;verticalAlign=middle;resizable=0;points=[];autosize=1;strokeColor=none;fillColor=none;fontSize=14;" parent="1" vertex="1">
          <mxGeometry x="150" y="610" width="70" height="30" as="geometry" />
        </mxCell>
        <mxCell id="abwORtX6xPweR-GpnYd3-126" style="rounded=0;orthogonalLoop=1;jettySize=auto;html=1;entryX=1;entryY=0;entryDx=0;entryDy=0;fontSize=14;" parent="1" source="abwORtX6xPweR-GpnYd3-111" target="abwORtX6xPweR-GpnYd3-112" edge="1">
          <mxGeometry relative="1" as="geometry" />
        </mxCell>
        <mxCell id="abwORtX6xPweR-GpnYd3-111" value="" style="ellipse;whiteSpace=wrap;html=1;aspect=fixed;fontSize=14;" parent="1" vertex="1">
          <mxGeometry x="180" y="660" width="20" height="20" as="geometry" />
        </mxCell>
        <mxCell id="abwORtX6xPweR-GpnYd3-128" style="rounded=0;orthogonalLoop=1;jettySize=auto;html=1;entryX=1;entryY=0;entryDx=0;entryDy=0;fontSize=14;" parent="1" source="abwORtX6xPweR-GpnYd3-112" target="abwORtX6xPweR-GpnYd3-115" edge="1">
          <mxGeometry relative="1" as="geometry" />
        </mxCell>
        <mxCell id="abwORtX6xPweR-GpnYd3-130" style="rounded=0;orthogonalLoop=1;jettySize=auto;html=1;entryX=0;entryY=0;entryDx=0;entryDy=0;fontSize=14;" parent="1" source="abwORtX6xPweR-GpnYd3-112" target="abwORtX6xPweR-GpnYd3-116" edge="1">
          <mxGeometry relative="1" as="geometry" />
        </mxCell>
        <mxCell id="abwORtX6xPweR-GpnYd3-112" value="" style="ellipse;whiteSpace=wrap;html=1;aspect=fixed;fontSize=14;" parent="1" vertex="1">
          <mxGeometry x="130" y="710" width="20" height="20" as="geometry" />
        </mxCell>
        <mxCell id="abwORtX6xPweR-GpnYd3-131" style="rounded=0;orthogonalLoop=1;jettySize=auto;html=1;entryX=1;entryY=0;entryDx=0;entryDy=0;fontSize=14;" parent="1" source="abwORtX6xPweR-GpnYd3-114" target="abwORtX6xPweR-GpnYd3-118" edge="1">
          <mxGeometry relative="1" as="geometry" />
        </mxCell>
        <mxCell id="abwORtX6xPweR-GpnYd3-132" style="rounded=0;orthogonalLoop=1;jettySize=auto;html=1;entryX=0;entryY=0;entryDx=0;entryDy=0;fontSize=14;" parent="1" source="abwORtX6xPweR-GpnYd3-114" target="abwORtX6xPweR-GpnYd3-117" edge="1">
          <mxGeometry relative="1" as="geometry" />
        </mxCell>
        <mxCell id="abwORtX6xPweR-GpnYd3-114" value="" style="ellipse;whiteSpace=wrap;html=1;aspect=fixed;fontSize=14;" parent="1" vertex="1">
          <mxGeometry x="235" y="710" width="20" height="20" as="geometry" />
        </mxCell>
        <mxCell id="abwORtX6xPweR-GpnYd3-115" value="" style="ellipse;whiteSpace=wrap;html=1;aspect=fixed;fillColor=#99FF99;fontSize=14;" parent="1" vertex="1">
          <mxGeometry x="100" y="765" width="20" height="20" as="geometry" />
        </mxCell>
        <mxCell id="abwORtX6xPweR-GpnYd3-116" value="" style="ellipse;whiteSpace=wrap;html=1;aspect=fixed;fillColor=#99FF99;fontSize=14;" parent="1" vertex="1">
          <mxGeometry x="160" y="765" width="20" height="20" as="geometry" />
        </mxCell>
        <mxCell id="abwORtX6xPweR-GpnYd3-117" value="" style="ellipse;whiteSpace=wrap;html=1;aspect=fixed;fillColor=#99FF99;fontSize=14;" parent="1" vertex="1">
          <mxGeometry x="270" y="765" width="20" height="20" as="geometry" />
        </mxCell>
        <mxCell id="abwORtX6xPweR-GpnYd3-133" style="rounded=0;orthogonalLoop=1;jettySize=auto;html=1;entryX=1;entryY=0;entryDx=0;entryDy=0;fontSize=14;" parent="1" source="abwORtX6xPweR-GpnYd3-118" target="abwORtX6xPweR-GpnYd3-120" edge="1">
          <mxGeometry relative="1" as="geometry" />
        </mxCell>
        <mxCell id="abwORtX6xPweR-GpnYd3-134" style="rounded=0;orthogonalLoop=1;jettySize=auto;html=1;entryX=0;entryY=0;entryDx=0;entryDy=0;fontSize=14;" parent="1" source="abwORtX6xPweR-GpnYd3-118" target="abwORtX6xPweR-GpnYd3-121" edge="1">
          <mxGeometry relative="1" as="geometry" />
        </mxCell>
        <mxCell id="abwORtX6xPweR-GpnYd3-118" value="" style="ellipse;whiteSpace=wrap;html=1;aspect=fixed;fontSize=14;" parent="1" vertex="1">
          <mxGeometry x="195" y="765" width="20" height="20" as="geometry" />
        </mxCell>
        <mxCell id="abwORtX6xPweR-GpnYd3-120" value="" style="ellipse;whiteSpace=wrap;html=1;aspect=fixed;fontSize=14;" parent="1" vertex="1">
          <mxGeometry x="160" y="817.5" width="20" height="20" as="geometry" />
        </mxCell>
        <mxCell id="abwORtX6xPweR-GpnYd3-135" style="rounded=0;orthogonalLoop=1;jettySize=auto;html=1;entryX=1;entryY=0;entryDx=0;entryDy=0;fontSize=14;" parent="1" source="abwORtX6xPweR-GpnYd3-121" target="abwORtX6xPweR-GpnYd3-122" edge="1">
          <mxGeometry relative="1" as="geometry" />
        </mxCell>
        <mxCell id="abwORtX6xPweR-GpnYd3-136" style="rounded=0;orthogonalLoop=1;jettySize=auto;html=1;entryX=0;entryY=0;entryDx=0;entryDy=0;fontSize=14;" parent="1" source="abwORtX6xPweR-GpnYd3-121" target="abwORtX6xPweR-GpnYd3-123" edge="1">
          <mxGeometry relative="1" as="geometry" />
        </mxCell>
        <mxCell id="abwORtX6xPweR-GpnYd3-121" value="" style="ellipse;whiteSpace=wrap;html=1;aspect=fixed;fontSize=14;" parent="1" vertex="1">
          <mxGeometry x="235" y="817.5" width="20" height="20" as="geometry" />
        </mxCell>
        <mxCell id="abwORtX6xPweR-GpnYd3-137" style="rounded=0;orthogonalLoop=1;jettySize=auto;html=1;entryX=1;entryY=0;entryDx=0;entryDy=0;fontSize=14;" parent="1" source="abwORtX6xPweR-GpnYd3-122" target="abwORtX6xPweR-GpnYd3-124" edge="1">
          <mxGeometry relative="1" as="geometry" />
        </mxCell>
        <mxCell id="abwORtX6xPweR-GpnYd3-138" style="rounded=0;orthogonalLoop=1;jettySize=auto;html=1;entryX=0;entryY=0;entryDx=0;entryDy=0;fontSize=14;" parent="1" source="abwORtX6xPweR-GpnYd3-122" target="abwORtX6xPweR-GpnYd3-125" edge="1">
          <mxGeometry relative="1" as="geometry" />
        </mxCell>
        <mxCell id="abwORtX6xPweR-GpnYd3-122" value="" style="ellipse;whiteSpace=wrap;html=1;aspect=fixed;fontSize=14;" parent="1" vertex="1">
          <mxGeometry x="200" y="870" width="20" height="20" as="geometry" />
        </mxCell>
        <mxCell id="abwORtX6xPweR-GpnYd3-123" value="" style="ellipse;whiteSpace=wrap;html=1;aspect=fixed;fontSize=14;" parent="1" vertex="1">
          <mxGeometry x="270" y="870" width="20" height="20" as="geometry" />
        </mxCell>
        <mxCell id="abwORtX6xPweR-GpnYd3-124" value="" style="ellipse;whiteSpace=wrap;html=1;aspect=fixed;fontSize=14;" parent="1" vertex="1">
          <mxGeometry x="160" y="920" width="20" height="20" as="geometry" />
        </mxCell>
        <mxCell id="abwORtX6xPweR-GpnYd3-125" value="" style="ellipse;whiteSpace=wrap;html=1;aspect=fixed;fillColor=#99FF99;fontSize=14;" parent="1" vertex="1">
          <mxGeometry x="235" y="920" width="20" height="20" as="geometry" />
        </mxCell>
        <mxCell id="abwORtX6xPweR-GpnYd3-127" style="rounded=0;orthogonalLoop=1;jettySize=auto;html=1;entryX=0.166;entryY=0.325;entryDx=0;entryDy=0;entryPerimeter=0;fontSize=14;" parent="1" source="abwORtX6xPweR-GpnYd3-111" target="abwORtX6xPweR-GpnYd3-114" edge="1">
          <mxGeometry relative="1" as="geometry" />
        </mxCell>
        <mxCell id="abwORtX6xPweR-GpnYd3-139" value="&lt;b style=&quot;font-size: 14px;&quot;&gt;···&lt;/b&gt;" style="text;html=1;align=center;verticalAlign=middle;resizable=0;points=[];autosize=1;strokeColor=none;fillColor=none;fontSize=14;" parent="1" vertex="1">
          <mxGeometry x="280" y="610" width="40" height="30" as="geometry" />
        </mxCell>
        <mxCell id="abwORtX6xPweR-GpnYd3-140" value="&lt;b style=&quot;font-size: 14px;&quot;&gt;iTree n&lt;/b&gt;" style="text;html=1;align=center;verticalAlign=middle;resizable=0;points=[];autosize=1;strokeColor=none;fillColor=none;fontSize=14;" parent="1" vertex="1">
          <mxGeometry x="380" y="610" width="70" height="30" as="geometry" />
        </mxCell>
        <mxCell id="abwORtX6xPweR-GpnYd3-141" style="rounded=0;orthogonalLoop=1;jettySize=auto;html=1;entryX=1;entryY=0;entryDx=0;entryDy=0;fontSize=14;" parent="1" source="abwORtX6xPweR-GpnYd3-142" target="abwORtX6xPweR-GpnYd3-145" edge="1">
          <mxGeometry relative="1" as="geometry" />
        </mxCell>
        <mxCell id="abwORtX6xPweR-GpnYd3-142" value="" style="ellipse;whiteSpace=wrap;html=1;aspect=fixed;fontSize=14;" parent="1" vertex="1">
          <mxGeometry x="410" y="660" width="20" height="20" as="geometry" />
        </mxCell>
        <mxCell id="abwORtX6xPweR-GpnYd3-143" style="rounded=0;orthogonalLoop=1;jettySize=auto;html=1;entryX=1;entryY=0;entryDx=0;entryDy=0;fontSize=14;" parent="1" source="abwORtX6xPweR-GpnYd3-145" target="abwORtX6xPweR-GpnYd3-149" edge="1">
          <mxGeometry relative="1" as="geometry" />
        </mxCell>
        <mxCell id="abwORtX6xPweR-GpnYd3-166" style="rounded=0;orthogonalLoop=1;jettySize=auto;html=1;entryX=0;entryY=0;entryDx=0;entryDy=0;fontSize=14;" parent="1" source="abwORtX6xPweR-GpnYd3-145" target="abwORtX6xPweR-GpnYd3-154" edge="1">
          <mxGeometry relative="1" as="geometry" />
        </mxCell>
        <mxCell id="abwORtX6xPweR-GpnYd3-145" value="" style="ellipse;whiteSpace=wrap;html=1;aspect=fixed;fontSize=14;" parent="1" vertex="1">
          <mxGeometry x="360" y="710" width="20" height="20" as="geometry" />
        </mxCell>
        <mxCell id="abwORtX6xPweR-GpnYd3-148" value="" style="ellipse;whiteSpace=wrap;html=1;aspect=fixed;fillColor=#FF0000;fontSize=14;" parent="1" vertex="1">
          <mxGeometry x="465" y="710" width="20" height="20" as="geometry" />
        </mxCell>
        <mxCell id="abwORtX6xPweR-GpnYd3-149" value="" style="ellipse;whiteSpace=wrap;html=1;aspect=fixed;fillColor=#99FF99;fontSize=14;" parent="1" vertex="1">
          <mxGeometry x="330" y="765" width="20" height="20" as="geometry" />
        </mxCell>
        <mxCell id="abwORtX6xPweR-GpnYd3-168" style="rounded=0;orthogonalLoop=1;jettySize=auto;html=1;entryX=1;entryY=0;entryDx=0;entryDy=0;fontSize=14;" parent="1" source="abwORtX6xPweR-GpnYd3-154" target="abwORtX6xPweR-GpnYd3-158" edge="1">
          <mxGeometry relative="1" as="geometry" />
        </mxCell>
        <mxCell id="abwORtX6xPweR-GpnYd3-169" style="rounded=0;orthogonalLoop=1;jettySize=auto;html=1;entryX=0;entryY=0;entryDx=0;entryDy=0;fontSize=14;" parent="1" source="abwORtX6xPweR-GpnYd3-154" target="abwORtX6xPweR-GpnYd3-155" edge="1">
          <mxGeometry relative="1" as="geometry" />
        </mxCell>
        <mxCell id="abwORtX6xPweR-GpnYd3-154" value="" style="ellipse;whiteSpace=wrap;html=1;aspect=fixed;fontSize=14;" parent="1" vertex="1">
          <mxGeometry x="390" y="765" width="20" height="20" as="geometry" />
        </mxCell>
        <mxCell id="abwORtX6xPweR-GpnYd3-155" value="" style="ellipse;whiteSpace=wrap;html=1;aspect=fixed;fontSize=14;" parent="1" vertex="1">
          <mxGeometry x="425" y="818.75" width="20" height="20" as="geometry" />
        </mxCell>
        <mxCell id="abwORtX6xPweR-GpnYd3-170" style="rounded=0;orthogonalLoop=1;jettySize=auto;html=1;entryX=1;entryY=0;entryDx=0;entryDy=0;fontSize=14;" parent="1" source="abwORtX6xPweR-GpnYd3-158" target="abwORtX6xPweR-GpnYd3-162" edge="1">
          <mxGeometry relative="1" as="geometry" />
        </mxCell>
        <mxCell id="abwORtX6xPweR-GpnYd3-171" style="rounded=0;orthogonalLoop=1;jettySize=auto;html=1;entryX=0;entryY=0;entryDx=0;entryDy=0;fontSize=14;" parent="1" source="abwORtX6xPweR-GpnYd3-158" target="abwORtX6xPweR-GpnYd3-161" edge="1">
          <mxGeometry relative="1" as="geometry" />
        </mxCell>
        <mxCell id="abwORtX6xPweR-GpnYd3-158" value="" style="ellipse;whiteSpace=wrap;html=1;aspect=fixed;fontSize=14;" parent="1" vertex="1">
          <mxGeometry x="360" y="818.75" width="20" height="20" as="geometry" />
        </mxCell>
        <mxCell id="abwORtX6xPweR-GpnYd3-159" style="rounded=0;orthogonalLoop=1;jettySize=auto;html=1;entryX=1;entryY=0;entryDx=0;entryDy=0;fontSize=14;" parent="1" source="abwORtX6xPweR-GpnYd3-161" target="abwORtX6xPweR-GpnYd3-163" edge="1">
          <mxGeometry relative="1" as="geometry" />
        </mxCell>
        <mxCell id="abwORtX6xPweR-GpnYd3-160" style="rounded=0;orthogonalLoop=1;jettySize=auto;html=1;entryX=0;entryY=0;entryDx=0;entryDy=0;fontSize=14;" parent="1" source="abwORtX6xPweR-GpnYd3-161" target="abwORtX6xPweR-GpnYd3-164" edge="1">
          <mxGeometry relative="1" as="geometry" />
        </mxCell>
        <mxCell id="abwORtX6xPweR-GpnYd3-161" value="" style="ellipse;whiteSpace=wrap;html=1;aspect=fixed;fontSize=14;" parent="1" vertex="1">
          <mxGeometry x="392.5" y="870" width="20" height="20" as="geometry" />
        </mxCell>
        <mxCell id="abwORtX6xPweR-GpnYd3-162" value="" style="ellipse;whiteSpace=wrap;html=1;aspect=fixed;fontSize=14;" parent="1" vertex="1">
          <mxGeometry x="330" y="870" width="20" height="20" as="geometry" />
        </mxCell>
        <mxCell id="abwORtX6xPweR-GpnYd3-163" value="" style="ellipse;whiteSpace=wrap;html=1;aspect=fixed;fontSize=14;" parent="1" vertex="1">
          <mxGeometry x="352.5" y="920" width="20" height="20" as="geometry" />
        </mxCell>
        <mxCell id="abwORtX6xPweR-GpnYd3-164" value="" style="ellipse;whiteSpace=wrap;html=1;aspect=fixed;fillColor=#99FF99;fontSize=14;" parent="1" vertex="1">
          <mxGeometry x="427.5" y="920" width="20" height="20" as="geometry" />
        </mxCell>
        <mxCell id="abwORtX6xPweR-GpnYd3-165" style="rounded=0;orthogonalLoop=1;jettySize=auto;html=1;entryX=0.166;entryY=0.325;entryDx=0;entryDy=0;entryPerimeter=0;fontSize=14;" parent="1" source="abwORtX6xPweR-GpnYd3-142" target="abwORtX6xPweR-GpnYd3-148" edge="1">
          <mxGeometry relative="1" as="geometry" />
        </mxCell>
      </root>
    </mxGraphModel>
  </diagram>
</mxfile>
